ffmpeg started on 2026-01-20 at 18:45:26
Report written to "D:\Convert\FFMetrics\reports\ssim_report-6.txt"
Log level: 32
Command line:
ffmpeg -hide_banner -nostdin -r 24000/1001 -i "F:\\Convert\\files\\[DC] Make Heroine ga Oosugiru - 07_Telegram_HEVC(215).mkv" -r 24000/1001 -i "F:\\Convert\\files\\[DC] Make Heroine ga Oosugiru - 07_Telegram.mp4" -lavfi "[0:v]settb=AVTB,setpts=PTS-STARTPTS,format=pix_fmts=yuv420p10le,fps=24000/1001,scale=1920:1080:flags=lanczos:param0=3:out_range=limited:out_color_matrix=bt709:out_chroma_loc=left,setsar=1/1,setdar=(1920/1080)*(1/1),colorspace=format=yuv420p10:range=tv:primaries=bt709:trc=bt709:space=bt709:fast=0[main];[1:v]settb=AVTB,setpts=PTS-STARTPTS,format=pix_fmts=yuv420p,fps=24000/1001,scale=1920:1080:flags=lanczos:param0=3:out_range=limited:out_color_matrix=bt709:out_chroma_loc=left,setsar=1.000,setdar=1.778,colorspace=format=yuv420p:range=tv:primaries=bt709:trc=bt709:space=bt709:fast=0[ref];[main][ref]ssim=eof_action=endall:stats_file='D\\:/Convert/FFMetrics/logs/ssim_logfile-6.txt'" -f null -
Input #0, matroska,webm, from 'F:\Convert\files\[DC] Make Heroine ga Oosugiru - 07_Telegram_HEVC(215).mkv':
  Metadata:
    COMPATIBLE_BRANDS: isomiso2avc1mp41
    MAJOR_BRAND     : isom
    MINOR_VERSION   : 512
    ENCODER         : Lavf61.7.100
  Duration: 00:24:06.79, start: -0.021000, bitrate: 920 kb/s
  Stream #0:0: Video: hevc (Main 10), yuv420p10le(tv, bt709, progressive), 1920x1080 [SAR 1:1 DAR 16:9], 23.98 fps, 23.98 tbr, 1k tbn (default)
      Metadata:
        HANDLER_NAME    : VideoHandler
        VENDOR_ID       : [0][0][0][0]
        ENCODER         : Lavc61.19.100 libx265
        BPS             : 723090
        DURATION        : 00:24:06.569708333
        NUMBER_OF_FRAMES: 34683
        NUMBER_OF_BYTES : 130750068
        _STATISTICS_WRITING_APP: mkvpropedit v94.0 ('Initiate') 64-bit
        _STATISTICS_WRITING_DATE_UTC: 2026-01-20 14:05:25
        _STATISTICS_TAGS: BPS DURATION NUMBER_OF_FRAMES NUMBER_OF_BYTES
  Stream #0:1: Audio: aac (LC), 48000 Hz, stereo, fltp (default)
      Metadata:
        HANDLER_NAME    : SoundHandler
        VENDOR_ID       : [0][0][0][0]
        ENCODER         : Lavc61.19.100 aac
        BPS             : 193194
        DURATION        : 00:24:06.784000000
        NUMBER_OF_FRAMES: 67819
        NUMBER_OF_BYTES : 34938755
        _STATISTICS_WRITING_APP: mkvpropedit v94.0 ('Initiate') 64-bit
        _STATISTICS_WRITING_DATE_UTC: 2026-01-20 14:05:25
        _STATISTICS_TAGS: BPS DURATION NUMBER_OF_FRAMES NUMBER_OF_BYTES
Input #1, mov,mp4,m4a,3gp,3g2,mj2, from 'F:\Convert\files\[DC] Make Heroine ga Oosugiru - 07_Telegram.mp4':
  Metadata:
    major_brand     : isom
    minor_version   : 512
    compatible_brands: isomiso2avc1mp41
    encoder         : Lavf60.16.100
  Duration: 00:24:06.74, start: 0.000000, bitrate: 3764 kb/s
  Stream #1:0[0x1](und): Video: h264 (High) (avc1 / 0x31637661), yuv420p(tv, bt709, progressive), 1920x1080 [SAR 1:1 DAR 16:9], 3616 kb/s, 23.98 fps, 23.98 tbr, 24k tbn (default)
      Metadata:
        handler_name    : VideoHandler
        vendor_id       : [0][0][0][0]
        encoder         : Lavc60.31.102 h264_qsv
  Stream #1:1[0x2](und): Audio: aac (HE-AACv2) (mp4a / 0x6134706D), 48000 Hz, stereo, fltp, 144 kb/s (default)
      Metadata:
        handler_name    : SoundHandler
        vendor_id       : [0][0][0][0]
Stream mapping:
  Stream #0:0 (hevc) -> settb:default
  Stream #1:0 (h264) -> settb:default
  ssim:default -> Stream #0:0 (wrapped_avframe)
  Stream #0:1 -> #0:1 (aac (native) -> pcm_s16le (native))
Output #0, null, to 'pipe:':
  Metadata:
    COMPATIBLE_BRANDS: isomiso2avc1mp41
    MAJOR_BRAND     : isom
    MINOR_VERSION   : 512
    encoder         : Lavf61.7.100
  Stream #0:0: Video: wrapped_avframe, yuv420p10le(tv, bt709, progressive), 1920x1080 [SAR 1:1 DAR 16:9], q=2-31, 200 kb/s, 23.98 fps, 23.98 tbn
      Metadata:
        encoder         : Lavc61.19.100 wrapped_avframe
  Stream #0:1: Audio: pcm_s16le, 48000 Hz, stereo, s16, 1536 kb/s (default)
      Metadata:
        HANDLER_NAME    : SoundHandler
        VENDOR_ID       : [0][0][0][0]
        _STATISTICS_TAGS: BPS DURATION NUMBER_OF_FRAMES NUMBER_OF_BYTES
        BPS             : 193194
        DURATION        : 00:24:06.784000000
        NUMBER_OF_FRAMES: 67819
        NUMBER_OF_BYTES : 34938755
        _STATISTICS_WRITING_APP: mkvpropedit v94.0 ('Initiate') 64-bit
        _STATISTICS_WRITING_DATE_UTC: 2026-01-20 14:05:25
        encoder         : Lavc61.19.100 pcm_s16le
frame=  132 fps=0.0 q=-0.0 size=N/A time=00:00:05.50 bitrate=N/A speed=10.6x    frame=  313 fps=303 q=-0.0 size=N/A time=00:00:13.05 bitrate=N/A speed=12.6x    frame=  502 fps=325 q=-0.0 size=N/A time=00:00:20.93 bitrate=N/A speed=13.6x    frame=  687 fps=332 q=-0.0 size=N/A time=00:00:28.65 bitrate=N/A speed=13.8x    frame=  876 fps=339 q=-0.0 size=N/A time=00:00:36.53 bitrate=N/A speed=14.1x    frame= 1014 fps=328 q=-0.0 size=N/A time=00:00:42.29 bitrate=N/A speed=13.7x    frame= 1177 fps=326 q=-0.0 size=N/A time=00:00:49.09 bitrate=N/A speed=13.6x    frame= 1342 fps=326 q=-0.0 size=N/A time=00:00:55.97 bitrate=N/A speed=13.6x    frame= 1508 fps=325 q=-0.0 size=N/A time=00:01:02.89 bitrate=N/A speed=13.5x    frame= 1652 fps=320 q=-0.0 size=N/A time=00:01:08.90 bitrate=N/A speed=13.4x    frame= 1814 fps=320 q=-0.0 size=N/A time=00:01:15.65 bitrate=N/A speed=13.3x    frame= 1980 fps=320 q=-0.0 size=N/A time=00:01:22.58 bitrate=N/A speed=13.4x    frame= 2101 fps=313 q=-0.0 size=N/A time=00:01:27.62 bitrate=N/A speed=13.1x    frame= 2262 fps=313 q=-0.0 size=N/A time=00:01:34.34 bitrate=N/A speed=13.1x    frame= 2405 fps=311 q=-0.0 size=N/A time=00:01:40.30 bitrate=N/A speed=  13x    frame= 2545 fps=308 q=-0.0 size=N/A time=00:01:46.14 bitrate=N/A speed=12.9x    frame= 2708 fps=309 q=-0.0 size=N/A time=00:01:52.94 bitrate=N/A speed=12.9x    frame= 2880 fps=310 q=-0.0 size=N/A time=00:02:00.12 bitrate=N/A speed=12.9x    frame= 3051 fps=312 q=-0.0 size=N/A time=00:02:07.25 bitrate=N/A speed=  13x    frame= 3241 fps=314 q=-0.0 size=N/A time=00:02:15.17 bitrate=N/A speed=13.1x    frame= 3429 fps=317 q=-0.0 size=N/A time=00:02:23.01 bitrate=N/A speed=13.2x    frame= 3612 fps=319 q=-0.0 size=N/A time=00:02:30.65 bitrate=N/A speed=13.3x    frame= 3800 fps=320 q=-0.0 size=N/A time=00:02:38.49 bitrate=N/A speed=13.4x    frame= 3987 fps=322 q=-0.0 size=N/A time=00:02:46.29 bitrate=N/A speed=13.4x    frame= 4174 fps=324 q=-0.0 size=N/A time=00:02:54.09 bitrate=N/A speed=13.5x    frame= 4357 fps=325 q=-0.0 size=N/A time=00:03:01.72 bitrate=N/A speed=13.6x    frame= 4544 fps=326 q=-0.0 size=N/A time=00:03:09.52 bitrate=N/A speed=13.6x    frame= 4729 fps=327 q=-0.0 size=N/A time=00:03:17.23 bitrate=N/A speed=13.7x    frame= 4912 fps=329 q=-0.0 size=N/A time=00:03:24.87 bitrate=N/A speed=13.7x    frame= 5098 fps=330 q=-0.0 size=N/A time=00:03:32.62 bitrate=N/A speed=13.8x    frame= 5284 fps=330 q=-0.0 size=N/A time=00:03:40.38 bitrate=N/A speed=13.8x    frame= 5467 fps=331 q=-0.0 size=N/A time=00:03:48.01 bitrate=N/A speed=13.8x    frame= 5655 fps=332 q=-0.0 size=N/A time=00:03:55.86 bitrate=N/A speed=13.9x    frame= 5836 fps=333 q=-0.0 size=N/A time=00:04:03.40 bitrate=N/A speed=13.9x    frame= 6020 fps=333 q=-0.0 size=N/A time=00:04:11.08 bitrate=N/A speed=13.9x    frame= 6207 fps=334 q=-0.0 size=N/A time=00:04:18.88 bitrate=N/A speed=13.9x    frame= 6387 fps=335 q=-0.0 size=N/A time=00:04:26.39 bitrate=N/A speed=  14x    frame= 6573 fps=336 q=-0.0 size=N/A time=00:04:34.14 bitrate=N/A speed=  14x    frame= 6763 fps=336 q=-0.0 size=N/A time=00:04:42.07 bitrate=N/A speed=  14x    frame= 6945 fps=337 q=-0.0 size=N/A time=00:04:49.66 bitrate=N/A speed=  14x    frame= 7125 fps=337 q=-0.0 size=N/A time=00:04:57.17 bitrate=N/A speed=14.1x    frame= 7309 fps=337 q=-0.0 size=N/A time=00:05:04.84 bitrate=N/A speed=14.1x    frame= 7489 fps=338 q=-0.0 size=N/A time=00:05:12.35 bitrate=N/A speed=14.1x    frame= 7663 fps=338 q=-0.0 size=N/A time=00:05:19.61 bitrate=N/A speed=14.1x    frame= 7848 fps=338 q=-0.0 size=N/A time=00:05:27.32 bitrate=N/A speed=14.1x    frame= 8033 fps=339 q=-0.0 size=N/A time=00:05:35.04 bitrate=N/A speed=14.1x    frame= 8218 fps=339 q=-0.0 size=N/A time=00:05:42.75 bitrate=N/A speed=14.1x    frame= 8402 fps=340 q=-0.0 size=N/A time=00:05:50.43 bitrate=N/A speed=14.2x    frame= 8584 fps=340 q=-0.0 size=N/A time=00:05:58.02 bitrate=N/A speed=14.2x    frame= 8769 fps=340 q=-0.0 size=N/A time=00:06:05.74 bitrate=N/A speed=14.2x    frame= 8954 fps=340 q=-0.0 size=N/A time=00:06:13.45 bitrate=N/A speed=14.2x    frame= 9135 fps=341 q=-0.0 size=N/A time=00:06:21.00 bitrate=N/A speed=14.2x    frame= 9312 fps=341 q=-0.0 size=N/A time=00:06:28.38 bitrate=N/A speed=14.2x    frame= 9497 fps=341 q=-0.0 size=N/A time=00:06:36.10 bitrate=N/A speed=14.2x    frame= 9682 fps=341 q=-0.0 size=N/A time=00:06:43.82 bitrate=N/A speed=14.2x    frame= 9862 fps=342 q=-0.0 size=N/A time=00:06:51.32 bitrate=N/A speed=14.2x    frame=10049 fps=342 q=-0.0 size=N/A time=00:06:59.12 bitrate=N/A speed=14.3x    frame=10227 fps=342 q=-0.0 size=N/A time=00:07:06.55 bitrate=N/A speed=14.3x    frame=10406 fps=342 q=-0.0 size=N/A time=00:07:14.01 bitrate=N/A speed=14.3x    frame=10585 fps=342 q=-0.0 size=N/A time=00:07:21.48 bitrate=N/A speed=14.3x    frame=10772 fps=342 q=-0.0 size=N/A time=00:07:29.28 bitrate=N/A speed=14.3x    frame=10951 fps=343 q=-0.0 size=N/A time=00:07:36.74 bitrate=N/A speed=14.3x    frame=11136 fps=343 q=-0.0 size=N/A time=00:07:44.46 bitrate=N/A speed=14.3x    frame=11317 fps=343 q=-0.0 size=N/A time=00:07:52.01 bitrate=N/A speed=14.3x    frame=11498 fps=343 q=-0.0 size=N/A time=00:07:59.56 bitrate=N/A speed=14.3x    frame=11690 fps=343 q=-0.0 size=N/A time=00:08:07.57 bitrate=N/A speed=14.3x    frame=11871 fps=344 q=-0.0 size=N/A time=00:08:15.11 bitrate=N/A speed=14.3x    frame=12055 fps=344 q=-0.0 size=N/A time=00:08:22.79 bitrate=N/A speed=14.3x    frame=12239 fps=344 q=-0.0 size=N/A time=00:08:30.46 bitrate=N/A speed=14.3x    frame=12429 fps=344 q=-0.0 size=N/A time=00:08:38.39 bitrate=N/A speed=14.4x    frame=12613 fps=344 q=-0.0 size=N/A time=00:08:46.06 bitrate=N/A speed=14.4x    frame=12798 fps=345 q=-0.0 size=N/A time=00:08:53.78 bitrate=N/A speed=14.4x    frame=12983 fps=345 q=-0.0 size=N/A time=00:09:01.49 bitrate=N/A speed=14.4x    frame=13168 fps=345 q=-0.0 size=N/A time=00:09:09.21 bitrate=N/A speed=14.4x    frame=13351 fps=345 q=-0.0 size=N/A time=00:09:16.84 bitrate=N/A speed=14.4x    frame=13527 fps=345 q=-0.0 size=N/A time=00:09:24.18 bitrate=N/A speed=14.4x    frame=13715 fps=345 q=-0.0 size=N/A time=00:09:32.02 bitrate=N/A speed=14.4x    frame=13897 fps=345 q=-0.0 size=N/A time=00:09:39.62 bitrate=N/A speed=14.4x    frame=14075 fps=346 q=-0.0 size=N/A time=00:09:47.04 bitrate=N/A speed=14.4x    frame=14251 fps=345 q=-0.0 size=N/A time=00:09:54.38 bitrate=N/A speed=14.4x    frame=14436 fps=346 q=-0.0 size=N/A time=00:10:02.10 bitrate=N/A speed=14.4x    frame=14622 fps=346 q=-0.0 size=N/A time=00:10:09.85 bitrate=N/A speed=14.4x    frame=14802 fps=346 q=-0.0 size=N/A time=00:10:17.36 bitrate=N/A speed=14.4x    frame=14985 fps=346 q=-0.0 size=N/A time=00:10:24.99 bitrate=N/A speed=14.4x    frame=15152 fps=346 q=-0.0 size=N/A time=00:10:31.96 bitrate=N/A speed=14.4x    frame=15337 fps=346 q=-0.0 size=N/A time=00:10:39.68 bitrate=N/A speed=14.4x    frame=15517 fps=346 q=-0.0 size=N/A time=00:10:47.18 bitrate=N/A speed=14.4x    frame=15696 fps=346 q=-0.0 size=N/A time=00:10:54.65 bitrate=N/A speed=14.4x    frame=15877 fps=346 q=-0.0 size=N/A time=00:11:02.20 bitrate=N/A speed=14.4x    frame=16068 fps=346 q=-0.0 size=N/A time=00:11:10.16 bitrate=N/A speed=14.4x    frame=16252 fps=346 q=-0.0 size=N/A time=00:11:17.84 bitrate=N/A speed=14.4x    frame=16435 fps=346 q=-0.0 size=N/A time=00:11:25.47 bitrate=N/A speed=14.5x    frame=16617 fps=347 q=-0.0 size=N/A time=00:11:33.06 bitrate=N/A speed=14.5x    frame=16808 fps=347 q=-0.0 size=N/A time=00:11:41.03 bitrate=N/A speed=14.5x    frame=16990 fps=347 q=-0.0 size=N/A time=00:11:48.62 bitrate=N/A speed=14.5x    frame=17177 fps=347 q=-0.0 size=N/A time=00:11:56.42 bitrate=N/A speed=14.5x    frame=17352 fps=347 q=-0.0 size=N/A time=00:12:03.72 bitrate=N/A speed=14.5x    frame=17536 fps=347 q=-0.0 size=N/A time=00:12:11.39 bitrate=N/A speed=14.5x    frame=17723 fps=347 q=-0.0 size=N/A time=00:12:19.19 bitrate=N/A speed=14.5x    frame=17896 fps=347 q=-0.0 size=N/A time=00:12:26.41 bitrate=N/A speed=14.5x    frame=18082 fps=347 q=-0.0 size=N/A time=00:12:34.17 bitrate=N/A speed=14.5x    frame=18259 fps=347 q=-0.0 size=N/A time=00:12:41.55 bitrate=N/A speed=14.5x    frame=18446 fps=347 q=-0.0 size=N/A time=00:12:49.35 bitrate=N/A speed=14.5x    frame=18626 fps=347 q=-0.0 size=N/A time=00:12:56.85 bitrate=N/A speed=14.5x    frame=18815 fps=347 q=-0.0 size=N/A time=00:13:04.74 bitrate=N/A speed=14.5x    frame=19002 fps=348 q=-0.0 size=N/A time=00:13:12.54 bitrate=N/A speed=14.5x    frame=19183 fps=348 q=-0.0 size=N/A time=00:13:20.09 bitrate=N/A speed=14.5x    frame=19369 fps=348 q=-0.0 size=N/A time=00:13:27.84 bitrate=N/A speed=14.5x    frame=19556 fps=348 q=-0.0 size=N/A time=00:13:35.64 bitrate=N/A speed=14.5x    frame=19742 fps=348 q=-0.0 size=N/A time=00:13:43.40 bitrate=N/A speed=14.5x    frame=19927 fps=348 q=-0.0 size=N/A time=00:13:51.12 bitrate=N/A speed=14.5x    frame=20105 fps=348 q=-0.0 size=N/A time=00:13:58.54 bitrate=N/A speed=14.5x    frame=20296 fps=348 q=-0.0 size=N/A time=00:14:06.51 bitrate=N/A speed=14.5x    frame=20472 fps=348 q=-0.0 size=N/A time=00:14:13.85 bitrate=N/A speed=14.5x    frame=20643 fps=348 q=-0.0 size=N/A time=00:14:20.98 bitrate=N/A speed=14.5x    frame=20836 fps=348 q=-0.0 size=N/A time=00:14:29.03 bitrate=N/A speed=14.5x    frame=21024 fps=348 q=-0.0 size=N/A time=00:14:36.87 bitrate=N/A speed=14.5x    frame=21209 fps=349 q=-0.0 size=N/A time=00:14:44.59 bitrate=N/A speed=14.5x    frame=21393 fps=349 q=-0.0 size=N/A time=00:14:52.26 bitrate=N/A speed=14.5x    frame=21577 fps=349 q=-0.0 size=N/A time=00:14:59.94 bitrate=N/A speed=14.5x    frame=21764 fps=349 q=-0.0 size=N/A time=00:15:07.74 bitrate=N/A speed=14.5x    frame=21949 fps=349 q=-0.0 size=N/A time=00:15:15.45 bitrate=N/A speed=14.6x    frame=22129 fps=349 q=-0.0 size=N/A time=00:15:22.96 bitrate=N/A speed=14.6x    frame=22315 fps=349 q=-0.0 size=N/A time=00:15:30.72 bitrate=N/A speed=14.6x    frame=22503 fps=349 q=-0.0 size=N/A time=00:15:38.56 bitrate=N/A speed=14.6x    frame=22684 fps=349 q=-0.0 size=N/A time=00:15:46.11 bitrate=N/A speed=14.6x    frame=22863 fps=349 q=-0.0 size=N/A time=00:15:53.57 bitrate=N/A speed=14.6x    frame=23056 fps=349 q=-0.0 size=N/A time=00:16:01.62 bitrate=N/A speed=14.6x    frame=23239 fps=349 q=-0.0 size=N/A time=00:16:09.25 bitrate=N/A speed=14.6x    frame=23428 fps=349 q=-0.0 size=N/A time=00:16:17.14 bitrate=N/A speed=14.6x    frame=23611 fps=349 q=-0.0 size=N/A time=00:16:24.77 bitrate=N/A speed=14.6x    frame=23797 fps=350 q=-0.0 size=N/A time=00:16:32.53 bitrate=N/A speed=14.6x    frame=23984 fps=350 q=-0.0 size=N/A time=00:16:40.33 bitrate=N/A speed=14.6x    frame=24171 fps=350 q=-0.0 size=N/A time=00:16:48.13 bitrate=N/A speed=14.6x    frame=24349 fps=350 q=-0.0 size=N/A time=00:16:55.55 bitrate=N/A speed=14.6x    frame=24538 fps=350 q=-0.0 size=N/A time=00:17:03.43 bitrate=N/A speed=14.6x    frame=24723 fps=350 q=-0.0 size=N/A time=00:17:11.15 bitrate=N/A speed=14.6x    frame=24907 fps=350 q=-0.0 size=N/A time=00:17:18.82 bitrate=N/A speed=14.6x    frame=25100 fps=350 q=-0.0 size=N/A time=00:17:26.87 bitrate=N/A speed=14.6x    frame=25282 fps=350 q=-0.0 size=N/A time=00:17:34.47 bitrate=N/A speed=14.6x    frame=25463 fps=350 q=-0.0 size=N/A time=00:17:42.01 bitrate=N/A speed=14.6x    frame=25656 fps=350 q=-0.0 size=N/A time=00:17:50.06 bitrate=N/A speed=14.6x    frame=25838 fps=350 q=-0.0 size=N/A time=00:17:57.65 bitrate=N/A speed=14.6x    frame=26026 fps=350 q=-0.0 size=N/A time=00:18:05.50 bitrate=N/A speed=14.6x    frame=26213 fps=351 q=-0.0 size=N/A time=00:18:13.30 bitrate=N/A speed=14.6x    frame=26398 fps=351 q=-0.0 size=N/A time=00:18:21.01 bitrate=N/A speed=14.6x    frame=26582 fps=351 q=-0.0 size=N/A time=00:18:28.69 bitrate=N/A speed=14.6x    frame=26766 fps=351 q=-0.0 size=N/A time=00:18:36.36 bitrate=N/A speed=14.6x    frame=26945 fps=351 q=-0.0 size=N/A time=00:18:43.83 bitrate=N/A speed=14.6x    frame=27124 fps=351 q=-0.0 size=N/A time=00:18:51.29 bitrate=N/A speed=14.6x    frame=27306 fps=351 q=-0.0 size=N/A time=00:18:58.88 bitrate=N/A speed=14.6x    frame=27486 fps=351 q=-0.0 size=N/A time=00:19:06.39 bitrate=N/A speed=14.6x    frame=27671 fps=351 q=-0.0 size=N/A time=00:19:14.11 bitrate=N/A speed=14.6x    frame=27855 fps=351 q=-0.0 size=N/A time=00:19:21.78 bitrate=N/A speed=14.6x    frame=28033 fps=351 q=-0.0 size=N/A time=00:19:29.20 bitrate=N/A speed=14.6x    frame=28219 fps=351 q=-0.0 size=N/A time=00:19:36.96 bitrate=N/A speed=14.6x    frame=28406 fps=351 q=-0.0 size=N/A time=00:19:44.76 bitrate=N/A speed=14.6x    frame=28589 fps=351 q=-0.0 size=N/A time=00:19:52.39 bitrate=N/A speed=14.6x    frame=28762 fps=351 q=-0.0 size=N/A time=00:19:59.61 bitrate=N/A speed=14.6x    frame=28936 fps=351 q=-0.0 size=N/A time=00:20:06.87 bitrate=N/A speed=14.6x    frame=29113 fps=351 q=-0.0 size=N/A time=00:20:14.25 bitrate=N/A speed=14.6x    frame=29286 fps=351 q=-0.0 size=N/A time=00:20:21.47 bitrate=N/A speed=14.6x    frame=29458 fps=350 q=-0.0 size=N/A time=00:20:28.64 bitrate=N/A speed=14.6x    frame=29637 fps=350 q=-0.0 size=N/A time=00:20:36.10 bitrate=N/A speed=14.6x    frame=29813 fps=350 q=-0.0 size=N/A time=00:20:43.45 bitrate=N/A speed=14.6x    frame=29984 fps=350 q=-0.0 size=N/A time=00:20:50.58 bitrate=N/A speed=14.6x    frame=30153 fps=350 q=-0.0 size=N/A time=00:20:57.63 bitrate=N/A speed=14.6x    frame=30331 fps=350 q=-0.0 size=N/A time=00:21:05.05 bitrate=N/A speed=14.6x    frame=30511 fps=350 q=-0.0 size=N/A time=00:21:12.56 bitrate=N/A speed=14.6x    frame=30687 fps=350 q=-0.0 size=N/A time=00:21:19.90 bitrate=N/A speed=14.6x    frame=30862 fps=350 q=-0.0 size=N/A time=00:21:27.20 bitrate=N/A speed=14.6x    frame=31047 fps=350 q=-0.0 size=N/A time=00:21:34.91 bitrate=N/A speed=14.6x    frame=31232 fps=350 q=-0.0 size=N/A time=00:21:42.63 bitrate=N/A speed=14.6x    frame=31411 fps=350 q=-0.0 size=N/A time=00:21:50.10 bitrate=N/A speed=14.6x    frame=31591 fps=350 q=-0.0 size=N/A time=00:21:57.60 bitrate=N/A speed=14.6x    frame=31776 fps=350 q=-0.0 size=N/A time=00:22:05.32 bitrate=N/A speed=14.6x    frame=31958 fps=350 q=-0.0 size=N/A time=00:22:12.91 bitrate=N/A speed=14.6x    frame=32137 fps=350 q=-0.0 size=N/A time=00:22:20.38 bitrate=N/A speed=14.6x    frame=32321 fps=350 q=-0.0 size=N/A time=00:22:28.05 bitrate=N/A speed=14.6x    frame=32502 fps=350 q=-0.0 size=N/A time=00:22:35.60 bitrate=N/A speed=14.6x    frame=32666 fps=350 q=-0.0 size=N/A time=00:22:42.44 bitrate=N/A speed=14.6x    frame=32830 fps=350 q=-0.0 size=N/A time=00:22:49.28 bitrate=N/A speed=14.6x    frame=32998 fps=350 q=-0.0 size=N/A time=00:22:56.29 bitrate=N/A speed=14.6x    frame=33177 fps=350 q=-0.0 size=N/A time=00:23:03.75 bitrate=N/A speed=14.6x    frame=33356 fps=350 q=-0.0 size=N/A time=00:23:11.22 bitrate=N/A speed=14.6x    frame=33521 fps=349 q=-0.0 size=N/A time=00:23:18.10 bitrate=N/A speed=14.6x    frame=33669 fps=349 q=-0.0 size=N/A time=00:23:24.27 bitrate=N/A speed=14.6x    frame=33810 fps=349 q=-0.0 size=N/A time=00:23:30.15 bitrate=N/A speed=14.5x    frame=33947 fps=348 q=-0.0 size=N/A time=00:23:35.87 bitrate=N/A speed=14.5x    frame=34120 fps=348 q=-0.0 size=N/A time=00:23:43.08 bitrate=N/A speed=14.5x    frame=34283 fps=348 q=-0.0 size=N/A time=00:23:49.88 bitrate=N/A speed=14.5x    frame=34414 fps=347 q=-0.0 size=N/A time=00:23:55.35 bitrate=N/A speed=14.5x    frame=34581 fps=347 q=-0.0 size=N/A time=00:24:02.31 bitrate=N/A speed=14.5x    [Parsed_ssim_16 @ 000002668d7f8f00] SSIM Y:0.993830 (22.097325) U:0.994017 (22.230846) V:0.993649 (21.971722) All:0.993831 (22.098001)
[out#0/null @ 00000266ff1f8a00] video:14903KiB audio:271276KiB subtitle:0KiB other streams:0KiB global headers:0KiB muxing overhead: unknown
frame=34683 fps=347 q=-0.0 Lsize=N/A time=00:24:06.57 bitrate=N/A speed=14.5x    
